<?xml version="1.0" standalone="no"?>
<!DOCTYPE svg PUBLIC "-//W3C//DTD SVG 20010904//EN"
 "http://www.w3.org/TR/2001/REC-SVG-20010904/DTD/svg10.dtd">
<svg version="1.0" xmlns="http://www.w3.org/2000/svg"
 width="4093.000000pt" height="4093.000000pt" viewBox="0 0 4093.000000 4093.000000"
 preserveAspectRatio="xMidYMid meet">
<metadata>
Created by potrace 1.11, written by Peter Selinger 2001-2013
</metadata>
<g transform="translate(0.000000,4093.000000) scale(0.100000,-0.100000)"
fill="#000000" stroke="none">
<path d="M21928 38886 c-32 -16 -82 -121 -107 -225 -33 -135 -66 -376 -101
-725 -13 -129 1 -111 -216 -276 -231 -176 -306 -276 -313 -422 -1 -43 5 -209
14 -370 19 -323 17 -393 -21 -638 -46 -299 -53 -324 -173 -592 -298 -671 -512
-1273 -724 -2043 -164 -592 -237 -939 -257 -1220 -25 -356 -84 -917 -136
-1305 -55 -409 -89 -567 -259 -1185 -262 -954 -259 -939 -290 -1295 -43 -488
-72 -733 -135 -1105 -54 -323 -64 -450 -57 -748 6 -272 25 -440 72 -617 50
-187 75 -307 86 -410 16 -140 5 -575 -21 -890 -43 -526 -16 -850 101 -1216 54
-168 112 -302 220 -511 105 -203 122 -259 122 -403 0 -203 -84 -549 -280
-1150 -73 -225 -85 -251 -260 -600 -101 -200 -182 -371 -181 -379 2 -9 17 -25
35 -37 l32 -21 -57 -40 c-81 -58 -175 -146 -250 -233 -145 -170 -239 -445
-367 -1070 -53 -263 -64 -300 -117 -399 -137 -260 -438 -513 -948 -798 -69
-39 -296 -159 -505 -268 -1046 -544 -1676 -911 -2170 -1266 -267 -191 -373
-281 -731 -620 -594 -563 -907 -932 -991 -1169 -18 -52 -23 -86 -23 -173 0
-300 127 -580 368 -809 166 -157 335 -251 557 -309 219 -57 378 -73 905 -94
536 -21 658 -34 894 -95 248 -64 464 -143 1026 -378 684 -285 826 -339 2070
-792 821 -299 990 -362 1100 -410 116 -51 150 -38 191 69 41 110 232 902 340
1414 12 59 26 107 31 107 26 0 84 -34 128 -76 130 -121 260 -391 415 -859 121
-364 185 -657 185 -841 0 -153 42 -207 133 -169 16 7 17 -26 17 -616 0 -343 5
-775 10 -959 29 -995 30 -1112 20 -1460 -33 -1168 -67 -1890 -105 -2290 -26
-269 -56 -433 -155 -855 -83 -351 -90 -410 -100 -765 -5 -173 -9 -408 -10
-522 0 -232 -2 -228 75 -228 l36 0 -5 -43 c-31 -228 -49 -333 -66 -382 -45
-132 -148 -291 -291 -450 -157 -175 -224 -301 -224 -421 0 -62 3 -75 27 -107
16 -19 53 -48 83 -62 50 -25 63 -27 138 -23 58 4 98 12 137 30 53 24 57 24 95
10 58 -22 218 -19 340 6 55 12 134 26 175 33 41 6 115 26 165 44 158 57 179
64 249 74 42 6 95 23 135 43 57 28 69 40 91 82 31 64 31 167 1 314 -24 117
-37 238 -46 461 l-7 154 53 -7 c97 -13 203 -36 284 -64 73 -24 93 -27 225 -26
164 1 281 21 347 60 96 56 314 356 441 609 62 122 62 147 -6 296 -87 193 -122
371 -122 621 0 153 11 284 56 658 80 674 115 1041 144 1480 18 271 24 1027 11
1301 -12 242 -37 538 -66 779 -42 347 -22 736 46 943 19 57 22 99 31 482 5
231 10 771 11 1200 3 886 -2 821 93 1286 189 930 269 1412 338 2029 65 576 85
879 93 1400 10 681 -22 1364 -113 2425 -26 305 -37 496 -42 748 l-7 337 70 1
c81 0 162 12 175 25 4 5 2 38 -6 74 -25 119 -65 463 -71 615 -9 227 6 279 230
810 152 362 232 568 400 1030 505 1389 625 1978 653 3185 6 285 6 285 50 505
73 372 79 428 79 795 -1 362 -7 422 -85 810 -47 235 -269 1172 -345 1453 -148
552 -576 1862 -667 2042 -61 120 -90 262 -113 552 -37 464 -101 930 -165 1190
-45 184 -251 745 -800 2173 -196 509 -288 762 -310 850 -67 270 -102 360 -170
437 -48 54 -77 132 -96 256 -15 95 -15 103 2 161 15 47 19 91 18 192 -1 127
-2 133 -34 200 -31 64 -34 77 -35 174 -2 127 -23 186 -93 254 -26 25 -60 61
-76 81 -32 40 -91 73 -178 101 l-58 18 0 140 c0 78 -5 236 -10 351 -16 323
-36 487 -66 548 -19 35 -65 37 -109 2 -32 -23 -33 -24 -49 -6 -23 25 -49 31
-78 17z m56 -3041 c59 -153 106 -208 231 -269 111 -54 181 -124 231 -231 45
-95 62 -164 74 -313 16 -198 54 -471 145 -1067 83 -545 104 -692 125 -895 20
-189 55 -318 158 -590 53 -139 72 -281 88 -655 l7 -159 -25 19 c-14 11 -62 49
-107 83 -321 249 -707 348 -1071 276 -256 -51 -536 -196 -698 -362 l-54 -55 7
94 c7 106 90 609 134 818 50 235 76 436 216 1691 102 915 119 1053 145 1148
31 112 53 146 170 264 84 84 117 124 144 179 20 40 36 78 36 85 0 33 17 9 44
-61z m1431 -6095 c8 -16 35 -128 60 -249 80 -395 150 -633 290 -996 101 -262
117 -354 94 -540 -15 -123 -34 -173 -118 -304 -39 -62 -92 -153 -117 -204 -26
-51 -65 -123 -87 -161 -36 -60 -48 -72 -95 -94 -69 -31 -142 -34 -179 -6 -77
58 -134 310 -164 723 -13 189 -9 212 81 391 80 160 145 314 171 407 21 74 23
99 26 548 3 435 6 515 18 515 2 0 11 -13 20 -30z m-2530 -1253 c0 -291 -11
-369 -64 -484 -25 -52 -37 -66 -83 -92 -54 -32 -95 -47 -104 -39 -9 10 120
638 157 763 24 81 65 143 83 125 8 -8 11 -91 11 -273z m-729 -12697 c218 -11
348 -31 468 -71 152 -51 269 -135 346 -249 59 -88 114 -187 93 -168 -17 16
-28 16 -183 -1 l-164 -18 -51 23 c-81 37 -154 45 -300 34 -165 -13 -1389 -31
-1434 -22 l-34 7 69 64 c232 217 535 371 792 401 95 11 191 11 398 0z"/>
</g>
</svg>
